<svg xmlns="http://www.w3.org/2000/svg" width="848" height="848" viewBox="0 0 848 848">
  <path id="Exclusion_1" data-name="Exclusion 1" d="M848,848H0V0H848V848ZM424,237a188.376,188.376,0,0,0-37.687,3.8,185.976,185.976,0,0,0-66.866,28.138A187.547,187.547,0,0,0,251.7,351.211a186.062,186.062,0,0,0-10.9,35.1,188.821,188.821,0,0,0,0,75.374,185.977,185.977,0,0,0,28.138,66.867A187.546,187.546,0,0,0,351.211,596.3a186.063,186.063,0,0,0,35.1,10.9,188.822,188.822,0,0,0,75.374,0,185.977,185.977,0,0,0,66.867-28.137A187.544,187.544,0,0,0,596.3,496.789a186.062,186.062,0,0,0,10.9-35.1,188.822,188.822,0,0,0,0-75.374,185.976,185.976,0,0,0-28.137-66.866A187.545,187.545,0,0,0,496.789,251.7a186.058,186.058,0,0,0-35.1-10.9A188.376,188.376,0,0,0,424,237Z"/>
</svg>
